<svg width="852" height="594" viewBox="0 0 852 594" fill="none" xmlns="http://www.w3.org/2000/svg">
<rect width="217.531" height="541.576" rx="108.766" transform="matrix(0.876005 0.482301 -0.441607 0.897209 239.163 3.1123)" fill="url(#paint0_linear_730_58)"/>
<path d="M473.651 97.5853C500.178 43.6904 564.341 23.4861 616.962 52.4577V52.4577C669.583 81.4293 690.737 148.606 664.209 202.501L592.659 347.869L521.109 493.237C494.582 547.132 430.42 567.336 377.798 538.364V538.364C325.177 509.393 304.024 442.216 330.551 388.321L473.651 97.5853Z" fill="url(#paint1_linear_730_58)"/>
<rect width="217.531" height="541.576" rx="108.766" transform="matrix(0.876005 -0.482301 -0.441607 -0.897209 383.366 593.935)" fill="url(#paint2_linear_730_58)"/>
<rect width="217.531" height="541.576" rx="108.766" transform="matrix(0.876005 -0.482301 0.441607 0.897209 422.278 105.193)" fill="url(#paint3_linear_730_58)"/>
<defs>
<linearGradient id="paint0_linear_730_58" x1="108.766" y1="0" x2="108.766" y2="541.576" gradientUnits="userSpaceOnUse">
<stop stop-color="white"/>
<stop offset="1" stop-opacity="0"/>
</linearGradient>
<linearGradient id="paint1_linear_730_58" x1="616.962" y1="52.4577" x2="356.034" y2="526.382" gradientUnits="userSpaceOnUse">
<stop stop-color="#C7C7C7"/>
<stop offset="1" stop-color="#C7C7C7" stop-opacity="0"/>
</linearGradient>
<linearGradient id="paint2_linear_730_58" x1="108.766" y1="0" x2="108.766" y2="541.576" gradientUnits="userSpaceOnUse">
<stop stop-color="white"/>
<stop offset="1" stop-color="white" stop-opacity="0"/>
</linearGradient>
<linearGradient id="paint3_linear_730_58" x1="108.766" y1="0" x2="108.766" y2="541.576" gradientUnits="userSpaceOnUse">
<stop stop-color="#C7C7C7" stop-opacity="0"/>
<stop offset="1" stop-color="#C7C7C7"/>
</linearGradient>
</defs>
</svg>
