<svg width="2418" height="1578" viewBox="0 0 2418 1578" fill="none" xmlns="http://www.w3.org/2000/svg">
<g clip-path="url(#clip0_76_20)" filter="url(#filter0_f_76_20)">
<rect width="1920" height="1080" transform="translate(249 249)" fill="black"/>
<rect x="820.264" y="-43.325" width="706.273" height="1702.8" rx="353.137" transform="rotate(27.5 820.264 -43.325)" fill="url(#paint0_linear_76_20)"/>
<path d="M1586 260.236C1676.06 87.2404 1889.3 20.0046 2062.3 110.06C2235.29 200.116 2302.53 413.361 2212.47 586.357L1982.4 1028.32L1752.33 1470.28C1662.27 1643.28 1449.03 1710.51 1276.03 1620.46C1103.04 1530.4 1035.8 1317.16 1125.86 1144.16L1586 260.236Z" fill="url(#paint1_linear_76_20)"/>
<rect width="706.273" height="1702.8" rx="353.137" transform="matrix(0.887011 -0.461749 -0.461749 -0.887011 1294.34 1793.19)" fill="url(#paint2_linear_76_20)"/>
<rect x="1422.26" y="273.984" width="706.273" height="1702.8" rx="353.137" transform="rotate(-27.5 1422.26 273.984)" fill="url(#paint3_linear_76_20)"/>
<rect x="249" y="249" width="1920" height="1080" fill="url(#paint4_linear_76_20)"/>
</g>
<defs>
<filter id="filter0_f_76_20" x="0.399994" y="0.399994" width="2417.2" height="1577.2" filterUnits="userSpaceOnUse" color-interpolation-filters="sRGB">
<feFlood flood-opacity="0" result="BackgroundImageFix"/>
<feBlend mode="normal" in="SourceGraphic" in2="BackgroundImageFix" result="shape"/>
<feGaussianBlur stdDeviation="124.3" result="effect1_foregroundBlur_76_20"/>
</filter>
<linearGradient id="paint0_linear_76_20" x1="1173.4" y1="-43.325" x2="1173.4" y2="1659.47" gradientUnits="userSpaceOnUse">
<stop stop-color="#9600A3"/>
<stop offset="1" stop-color="#9600A3" stop-opacity="0"/>
</linearGradient>
<linearGradient id="paint1_linear_76_20" x1="2062.3" y1="110.06" x2="1276.03" y2="1620.46" gradientUnits="userSpaceOnUse">
<stop stop-color="#00BB70"/>
<stop offset="1" stop-color="#0094FF" stop-opacity="0"/>
</linearGradient>
<linearGradient id="paint2_linear_76_20" x1="353.137" y1="0" x2="353.137" y2="1702.8" gradientUnits="userSpaceOnUse">
<stop stop-color="#FF8A00"/>
<stop offset="1" stop-color="#E3FF75" stop-opacity="0"/>
</linearGradient>
<linearGradient id="paint3_linear_76_20" x1="1775.4" y1="273.984" x2="1775.4" y2="1976.78" gradientUnits="userSpaceOnUse">
<stop stop-color="#0094FF" stop-opacity="0"/>
<stop offset="1" stop-color="#00C2FF"/>
</linearGradient>
<linearGradient id="paint4_linear_76_20" x1="1055.45" y1="44.1818" x2="2752.76" y2="1184.07" gradientUnits="userSpaceOnUse">
<stop offset="0.248337" stop-opacity="0"/>
<stop offset="0.621785"/>
</linearGradient>
<clipPath id="clip0_76_20">
<rect width="1920" height="1080" fill="white" transform="translate(249 249)"/>
</clipPath>
</defs>
</svg>
